<?xml version="1.0" encoding="utf-8"?>
<!DOCTYPE svg PUBLIC "-//W3C//DTD SVG 20010904//EN" "http://www.w3.org/TR/2001/REC-SVG-20010904/DTD/svg10.dtd">
<svg version="1.0" xmlns="http://www.w3.org/2000/svg" width="110px" height="68px" viewBox="0 0 110 68" preserveAspectRatio="xMidYMid meet">
 <g fill="#fefefe">
  <path d="M0 34.19 l0 -34.19 55 0 55 0 0 34.19 0 34.19 -55 0 -55 0 0 -34.19z m16.30 30.91 c0.53 -0.24 0.93 -0.58 0.93 -0.82 0 -0.37 -0.21 -0.40 -1.40 -0.27 -1.01 0.13 -1.70 0.05 -2.49 -0.27 -1.59 -0.64 -2.07 -1.46 -2.07 -3.71 0 -3.45 0.93 -4.48 4.06 -4.48 1.59 0 1.91 -0.08 1.86 -0.42 -0.11 -0.56 -2.15 -1.17 -3.23 -0.95 -1.91 0.37 -3.87 2.33 -4.43 4.43 -0.45 1.70 0.03 3.37 1.46 4.90 1.62 1.78 3.53 2.33 5.33 1.59z m90.36 -0.03 c0.53 -0.21 0.95 -0.58 0.95 -0.80 0 -0.32 -0.42 -0.40 -2.07 -0.40 -3.07 0 -4.03 -0.98 -4.03 -4.11 0 -3.13 1.11 -4.24 4.16 -4.24 1.56 0.03 1.93 -0.05 1.88 -0.37 -0.11 -0.53 -2.17 -1.17 -3.23 -0.98 -0.48 0.08 -1.43 0.53 -2.12 0.95 -1.64 1.06 -2.68 3.13 -2.49 5.06 0.19 1.93 1.35 3.63 3.10 4.53 1.59 0.85 2.47 0.93 3.84 0.34z m-101.09 -5.30 l0 -5.43 -1.70 0 c-1.30 0 -1.72 0.11 -1.86 0.42 -0.24 0.64 0.05 0.90 1.06 0.90 l0.90 0 0 4.77 0 4.77 0.80 0 0.80 0 0 -5.43z m29.87 4.77 c1.11 -0.64 1.80 -1.93 1.56 -2.89 -0.40 -1.59 -2.36 -2.54 -5.20 -2.54 l-1.35 0 0.08 -1.64 0.08 -1.67 2.86 -0.08 c2.81 -0.08 2.84 -0.08 2.84 -0.72 l0 -0.66 -3.84 0 -3.84 0 0 5.46 0 5.49 3 -0.13 c2.28 -0.08 3.18 -0.21 3.82 -0.61z m9.25 -2.92 c2.20 -3.42 2.36 -3.58 3.21 -3.58 l0.87 0 0 3.58 0 3.58 0.93 0 0.93 0 0 -5.46 0 -5.43 -0.98 0.08 c-0.95 0.08 -1.06 0.21 -3.21 3.53 -2.07 3.23 -2.25 3.45 -3.13 3.53 l-0.90 0.08 0 -3.58 0 -3.60 -0.93 0 -0.93 0 0 5.43 0 5.43 0.90 0 c0.87 0 1.01 -0.13 3.23 -3.58z m13.41 -1.11 l0.08 -4.72 1.40 -0.08 c1.27 -0.08 1.38 -0.13 1.38 -0.74 l0 -0.64 -3.71 0 -3.71 0 0 0.66 c0 0.61 0.08 0.66 1.33 0.66 l1.33 0 0 4.59 c0 2.54 0.08 4.69 0.19 4.77 0.08 0.11 0.50 0.19 0.90 0.19 l0.77 0 0.05 -4.69z m7.69 2.65 l0.08 -2.07 1.86 -0.16 c2.23 -0.16 3.21 -0.72 3.87 -2.20 0.50 -1.17 0.34 -1.96 -0.64 -3.05 -0.95 -1.01 -2.09 -1.35 -4.69 -1.35 l-2.39 0 0 5.43 0 5.43 0.93 0 0.90 0 0.08 -2.04z m12.54 -0.27 c3.21 -4.96 3.10 -4.82 4.06 -4.85 l0.85 0 0 3.58 0 3.58 0.93 0 0.93 0 0 -5.43 0 -5.43 -0.93 0 c-0.93 0 -1.01 0.11 -3.26 3.58 -2.17 3.37 -2.36 3.58 -3.15 3.58 l-0.87 0 0 -3.58 0 -3.58 -0.93 0 -0.93 0 0 5.43 0 5.43 0.90 0 c0.87 0 1.01 -0.13 2.41 -2.31z m12.27 -0.27 l0.08 -2.47 0.85 0 c0.77 0 0.98 0.21 2.52 2.52 1.48 2.28 1.72 2.52 2.47 2.52 l0.82 0 -0.56 -0.72 c-3.60 -4.74 -3.66 -5.09 -1.54 -7.74 1.91 -2.36 1.93 -2.41 1.19 -2.41 -0.48 0 -1.01 0.58 -2.28 2.39 -1.56 2.20 -1.75 2.39 -2.60 2.39 l-0.90 0 0 -2.41 0 -2.39 -0.98 0.08 -1.01 0.08 -0.08 5.04 c-0.03 2.76 0 5.17 0.08 5.38 0.08 0.21 0.45 0.32 0.98 0.27 l0.87 -0.08 0.08 -2.44z m-66.74 -2.70 c0 -0.64 -0.66 -1.19 -1.19 -0.98 -0.64 0.24 -0.77 0.93 -0.27 1.48 0.34 0.40 0.58 0.45 0.95 0.24 0.29 -0.13 0.50 -0.48 0.50 -0.74z m36.02 -20.17 c6.87 -1.64 12.51 -7.21 14.31 -14.15 2.12 -8.11 -2.09 -16.94 -10.05 -21.07 -3.47 -1.80 -7.53 -2.62 -10.20 -2.07 l-1.59 0.32 -0.08 8.88 c-0.08 10.07 0 10.63 1.56 12.06 1.75 1.56 3.92 1.01 5.04 -1.30 l0.58 -1.17 -0.64 -1.14 c-0.48 -0.90 -0.95 -1.33 -2.01 -1.83 l-1.40 -0.66 0 -4.82 0 -4.85 1.54 0 c5.12 0 9.99 3.63 11.72 8.72 0.66 1.96 0.74 6.87 0.16 8.80 -1.33 4.32 -4.45 7.47 -8.72 8.77 -2.47 0.74 -7.21 0.58 -9.52 -0.29 -3.84 -1.48 -7 -5.20 -7.87 -9.25 -0.19 -0.85 -0.29 -4.35 -0.29 -8.88 l-0.03 -7.47 -1.19 1.33 c-1.51 1.70 -3.13 4.98 -3.84 7.82 -0.77 3.05 -0.61 6.18 0.50 9.38 1.01 2.94 2.15 4.85 4.27 7.10 4.82 5.17 11.37 7.29 17.76 5.78z"/>
  <path d="M30.48 62.16 l0 -1.99 2.07 0 c1.25 0 2.20 0.13 2.39 0.32 0.19 0.19 0.32 0.93 0.32 1.67 0 0.74 -0.13 1.48 -0.32 1.67 -0.19 0.19 -1.14 0.32 -2.39 0.32 l-2.07 0 0 -1.99z"/>
  <path d="M65.73 57.62 l0 -2.28 1.70 0.11 c2.23 0.13 2.54 0.42 2.54 2.36 0 1.86 -0.29 2.09 -2.62 2.09 l-1.62 0 0 -2.28z"/>
 </g>
 <g fill="#c60a2c">
  <path d="M51.55 40.69 c-5.17 -1.14 -10.15 -4.72 -12.83 -9.22 -2.47 -4.19 -3.37 -10.13 -2.17 -14.76 0.87 -3.45 2.41 -6.31 4.69 -8.69 l1.93 -2.04 0.03 8.27 c0 5.12 0.11 8.80 0.29 9.67 0.87 4.06 4.03 7.79 7.87 9.22 2.31 0.87 5.62 1.01 7.93 0.32 5.57 -1.70 9.09 -6.41 9.09 -12.19 0 -3.42 -1.06 -6.04 -3.53 -8.72 -1.72 -1.88 -5.73 -3.79 -7.93 -3.79 -0.74 0 -0.74 0.03 -0.74 1.70 l0 1.67 1.22 0.19 c1.64 0.21 4.19 1.62 5.30 2.92 1.70 1.96 2.09 3.15 2.09 6.12 0 2.23 -0.11 2.84 -0.61 3.87 -0.93 1.88 -2.23 3.23 -4.08 4.24 -1.56 0.85 -1.83 0.90 -4.19 0.90 -2.17 0 -2.73 -0.11 -3.98 -0.69 -1.86 -0.87 -3.50 -2.54 -4.45 -4.45 l-0.72 -1.48 -0.08 -9.94 c-0.08 -9.17 -0.05 -9.97 0.37 -10.26 0.27 -0.19 0.61 -0.34 0.74 -0.34 0.21 0 0.29 3.10 0.29 9.89 0 9.62 0.03 9.89 0.58 11.13 1.19 2.57 3.07 4.13 5.62 4.69 3.50 0.74 6.79 -0.93 8.59 -4.35 0.80 -1.56 0.80 -4.88 -0.03 -6.44 -1.19 -2.28 -3.39 -3.95 -5.80 -4.45 l-0.87 -0.19 0 1.70 0 1.67 1.40 0.66 c3.37 1.62 3.45 5.99 0.11 7.66 -1.70 0.85 -3.26 0.61 -4.67 -0.66 -1.59 -1.40 -1.64 -1.91 -1.56 -12.83 l0.08 -9.67 1.59 -0.34 c3.13 -0.66 7.77 0.11 11.40 1.91 7.05 3.50 11.03 9.94 11.03 17.79 0 11.16 -8.67 19.80 -19.77 19.72 -1.46 0 -3.37 -0.19 -4.24 -0.37z"/>
 </g>
 <g fill="#221e1f">
  <path d="M12.33 65.87 c-1.33 -0.45 -3.10 -2.36 -3.53 -3.76 -0.74 -2.49 -0.24 -5.04 1.33 -6.84 1.35 -1.54 2.86 -2.09 5.06 -1.93 2.60 0.21 2.84 0.42 2.84 2.47 l0 1.70 -0.93 -0.56 c-1.11 -0.64 -2.76 -0.69 -3.66 -0.08 -1.27 0.82 -1.78 3.29 -0.98 4.77 0.80 1.48 3 1.93 4.67 0.95 l0.90 -0.53 0 1.72 c0 1.72 0 1.72 -0.93 2.12 -1.14 0.48 -3.39 0.45 -4.77 -0.03z"/>
  <path d="M102.02 65.52 c-2.12 -1.11 -3 -2.65 -3.10 -5.46 -0.08 -1.93 0 -2.31 0.66 -3.60 0.56 -1.09 1.06 -1.64 2.04 -2.25 1.17 -0.72 1.54 -0.80 3.31 -0.80 1.11 0.03 2.33 0.16 2.76 0.34 0.69 0.29 0.72 0.40 0.72 2.07 l0 1.75 -0.95 -0.61 c-1.19 -0.74 -2.81 -0.77 -3.76 -0.05 -1.59 1.17 -1.75 3.98 -0.32 5.43 0.61 0.61 0.98 0.74 2.04 0.74 0.80 0 1.59 -0.19 2.15 -0.53 l0.85 -0.53 0 1.72 0 1.72 -0.95 0.40 c-1.59 0.66 -3.79 0.53 -5.43 -0.34z"/>
  <path d="M3.18 61.26 l0 -4.77 -0.98 -0.08 c-0.87 -0.08 -1.01 -0.16 -1.09 -0.85 -0.05 -0.40 -0.03 -1.03 0.05 -1.38 0.16 -0.61 0.27 -0.64 2.68 -0.64 l2.52 0 0 6.23 0 6.23 -1.59 0 -1.59 0 0 -4.74z"/>
  <path d="M27.83 59.80 l0 -6.26 4.64 0 4.64 0 0 1.46 0 1.43 -2.84 0.08 -2.86 0.08 -0.08 0.82 -0.08 0.82 1.93 0.13 c1.06 0.08 2.39 0.34 2.94 0.61 2.47 1.17 2.52 4.93 0.08 6.39 -0.66 0.40 -1.51 0.50 -4.59 0.58 l-3.79 0.11 0 -6.26z m6.31 3.23 c0.19 -0.19 0.32 -0.56 0.32 -0.87 0 -0.87 -0.53 -1.19 -1.91 -1.19 l-1.27 0 0 1.19 0 1.19 1.27 0 c0.69 0 1.40 -0.13 1.59 -0.32z"/>
  <path d="M39.76 59.77 l0 -6.23 1.72 0 1.70 0 0.08 3.60 0.08 3.58 2.25 -3.53 2.25 -3.53 1.80 -0.08 1.78 -0.08 0 6.26 0 6.23 -1.72 0 -1.70 0 -0.08 -3.60 -0.08 -3.60 -2.33 3.60 -2.36 3.60 -1.70 0 -1.70 0 0 -6.23z"/>
  <path d="M55.58 65.81 c-0.11 -0.08 -0.19 -2.23 -0.19 -4.77 l0 -4.59 -1.33 0 -1.33 0 0 -1.46 0 -1.46 4.51 0 4.51 0 0 1.43 0 1.46 -1.38 0.08 -1.40 0.08 -0.08 4.72 -0.05 4.69 -1.56 0 c-0.85 0 -1.62 -0.08 -1.70 -0.19z"/>
  <path d="M63.08 59.74 l0 -6.26 3.55 0.11 c3.10 0.08 3.66 0.16 4.29 0.64 1.78 1.33 2.33 3.05 1.59 5.01 -0.66 1.67 -1.67 2.33 -3.98 2.49 l-1.88 0.16 -0.08 2.07 -0.08 2.04 -1.70 0 -1.72 0 0 -6.26z m5.59 -0.90 c0.61 -0.34 0.69 -1.64 0.13 -2.09 -0.21 -0.19 -0.80 -0.40 -1.33 -0.48 l-0.95 -0.16 0 1.51 c0 1.48 0 1.48 0.82 1.48 0.45 0 1.03 -0.13 1.33 -0.27z"/>
  <path d="M74.22 59.77 l0 -6.23 1.72 0 1.72 0 0 3.66 0 3.63 2.39 -3.63 2.39 -3.66 1.72 0 1.72 0 0 6.23 0 6.23 -1.72 0 -1.72 0 0 -3.63 0 -3.63 -0.85 1.25 c-0.48 0.66 -1.56 2.31 -2.41 3.63 l-1.54 2.39 -1.70 0 -1.72 0 0 -6.23z"/>
  <path d="M87.87 65.68 c-0.08 -0.21 -0.11 -2.97 -0.08 -6.18 l0.08 -5.83 1.78 -0.08 1.78 -0.08 0.08 2.47 0.08 2.47 1.72 -2.44 1.72 -2.47 1.93 0 c1.03 0 1.91 0.08 1.91 0.16 0 0.19 -1.01 1.51 -2.86 3.87 -0.80 1.01 -1.38 1.96 -1.30 2.12 0.05 0.19 1.09 1.62 2.28 3.18 1.17 1.56 2.15 2.92 2.15 3 0 0.08 -0.95 0.13 -2.12 0.13 l-2.12 0 -1.70 -2.57 -1.72 -2.57 -0.08 2.52 -0.08 2.49 -1.67 0.08 c-1.19 0.05 -1.70 -0.03 -1.78 -0.27z"/>
  <path d="M21.52 61.15 c-0.32 -0.34 -0.58 -0.95 -0.58 -1.35 0 -0.90 1.09 -2.01 1.99 -2.01 0.95 0 1.99 1.11 1.99 2.12 0 1.72 -2.20 2.52 -3.39 1.25z"/>
 </g>
 <g fill="#b3b1b2">
 </g>
</svg>