<?xml version="1.0" encoding="utf-8"?>
<!DOCTYPE svg PUBLIC "-//W3C//DTD SVG 20010904//EN" "http://www.w3.org/TR/2001/REC-SVG-20010904/DTD/svg10.dtd">
<svg version="1.0" xmlns="http://www.w3.org/2000/svg" width="200px" height="39px" viewBox="0 0 200 39" preserveAspectRatio="xMidYMid meet">
 <g fill="#10baf0">
  <path d="M28 36.09 c-0.33 -0.07 -0.83 -0.31 -1.09 -0.56 -0.98 -0.91 -0.98 -0.93 -0.98 -10.72 l0 -9.07 3.13 0 3.11 0 -0.39 0.80 c-0.48 0.96 -0.63 3.13 -0.30 4.31 0.30 1.04 1.11 2.20 1.80 2.54 1.39 0.70 3.13 0.50 4.15 -0.48 0.98 -0.96 1.35 -2.02 1.35 -3.83 0 -1.46 -0.11 -1.89 -0.78 -3.19 -0.04 -0.09 1.22 -0.15 2.80 -0.15 l2.87 0 0.20 0.93 c0.28 1.33 0.24 3.78 -0.07 5.17 -0.65 2.74 -2.59 5.30 -4.85 6.37 -1.17 0.54 -1.41 0.59 -3.11 0.59 -1.93 0 -2.54 -0.15 -3.85 -0.96 l-0.69 -0.43 0.02 2.81 c0.02 1.69 -0.07 3.19 -0.20 3.69 -0.43 1.67 -1.63 2.50 -3.11 2.19z"/>
  <path d="M12.96 28.63 c-3.09 -0.83 -5.52 -3.44 -6.39 -6.87 -0.33 -1.28 -0.37 -3.74 -0.07 -5.09 l0.20 -0.93 2.85 0 c1.57 0 2.85 0.02 2.85 0.06 0 0.04 -0.19 0.43 -0.41 0.89 -0.30 0.61 -0.41 1.17 -0.41 2.30 -0.02 1.85 0.39 2.98 1.37 3.87 2.11 1.91 5.17 0.89 5.94 -2 0.31 -1.19 0.13 -3.63 -0.35 -4.44 l-0.41 -0.69 2.93 0.06 2.91 0.06 0.22 1.02 c0.87 4.17 -0.87 8.67 -4.19 10.76 -1.83 1.17 -4.89 1.61 -7.06 1.02z"/>
  <path d="M52.65 28.61 c-4.61 -1.30 -7.43 -5.83 -6.72 -10.85 0.31 -2.22 0 -2.02 3.15 -2.02 l2.78 0 -0.19 0.48 c-0.39 1.02 -0.48 1 3.43 1 3.91 0 3.81 0.02 3.43 -1 l-0.19 -0.48 2.67 0 2.65 0 0.13 0.70 c0.06 0.37 0.11 1.24 0.11 1.93 0 1.04 -0.07 1.31 -0.44 1.76 l-0.44 0.52 -5.78 0.06 -5.78 0.06 0.09 0.65 c0.24 1.43 1.57 2.39 3.65 2.61 1.30 0.13 2.33 -0.11 4.31 -0.98 2.28 -1 3.52 -0.76 4.02 0.78 0.63 1.87 -0.78 3.43 -3.98 4.46 -1.87 0.59 -5.35 0.78 -6.89 0.33z"/>
  <path d="M90.57 28.61 c-0.56 -0.17 -1.41 -0.50 -1.91 -0.78 -1.22 -0.67 -2.94 -2.54 -3.67 -4 -1.02 -2.09 -1.33 -5.13 -0.72 -7.39 l0.19 -0.70 2.87 0 2.85 0 -0.39 0.78 c-0.81 1.59 -0.65 4.31 0.33 5.76 1.06 1.52 2.67 1.87 5.13 1.09 1.85 -0.59 2.59 -0.56 3.35 0.20 1.63 1.63 0.65 3.65 -2.30 4.78 -1.37 0.52 -4.30 0.67 -5.74 0.26z"/>
  <path d="M107.02 28.56 c-2.65 -0.89 -4.87 -3.56 -5.63 -6.74 -0.31 -1.37 -0.35 -3.83 -0.07 -5.15 l0.20 -0.93 2.87 0 c1.57 0 2.83 0.06 2.80 0.15 -0.80 1.54 -1.04 3 -0.72 4.52 0.30 1.37 1.07 2.59 1.98 3.02 0.91 0.44 2.54 0.44 3.37 0.02 0.76 -0.39 1.59 -1.52 1.89 -2.59 0.33 -1.19 0.19 -3.35 -0.30 -4.31 l-0.39 -0.80 3.11 0 3.13 0 0 5.15 c0 2.81 -0.09 5.43 -0.19 5.80 -0.57 2.06 -3.37 2.48 -4.63 0.70 l-0.41 -0.57 -0.59 0.56 c-1.06 1.02 -2.06 1.41 -3.80 1.46 -1.17 0.04 -1.87 -0.04 -2.63 -0.28z"/>
  <path d="M160.81 28.52 c-1.43 -0.70 -1.96 -2.48 -1.13 -3.70 1.22 -1.80 3.24 -1.93 4.50 -0.28 1.04 1.35 0.46 3.43 -1.15 4.09 -0.83 0.35 -1.33 0.33 -2.22 -0.11z"/>
  <path d="M173.72 28.48 c-2.04 -1.06 -1.96 -3.80 0.11 -4.80 2.94 -1.43 5.31 2.76 2.65 4.65 -0.85 0.61 -1.80 0.67 -2.76 0.15z"/>
  <path d="M67.13 28.33 c-0.57 -0.22 -1.19 -0.98 -1.39 -1.69 -0.11 -0.35 -0.19 -2.94 -0.19 -5.76 l0 -5.15 2.80 0 2.80 0 -0.15 0.50 c-0.09 0.30 -0.17 2.65 -0.17 5.24 0 4.44 -0.02 4.78 -0.41 5.59 -0.24 0.54 -0.61 0.96 -0.96 1.15 -0.59 0.31 -1.72 0.37 -2.33 0.11z"/>
  <path d="M78.17 28.06 c-0.30 -0.26 -0.70 -0.87 -0.87 -1.33 -0.35 -0.93 -0.39 -1.72 -0.28 -7 0.04 -1.83 -0.02 -3.17 -0.15 -3.46 l-0.20 -0.52 2.78 0 2.78 0 0 5.48 c0 5.26 -0.02 5.52 -0.39 6.13 -0.76 1.24 -2.59 1.59 -3.67 0.70z"/>
  <path d="M122.39 28.02 c-1.04 -0.89 -1.09 -1.19 -1.09 -7 l0 -5.28 3.28 0 c3.09 0 3.24 0.02 2.98 0.33 -0.74 0.85 -0.80 1.15 -0.89 5.87 -0.09 3.96 -0.15 4.72 -0.43 5.24 -0.74 1.37 -2.70 1.80 -3.85 0.83z"/>
  <path d="M138.89 28.04 c-1.09 -0.93 -1.11 -1.02 -1.11 -6.93 l0 -5.37 2.59 0 2.59 0 0 5.39 c0 4.57 -0.04 5.48 -0.30 6.02 -0.65 1.37 -2.65 1.83 -3.78 0.89z"/>
  <path d="M179.87 20 c0.17 -0.26 1.07 -1.31 2.02 -2.35 1.39 -1.56 1.80 -1.91 2.22 -1.91 0.28 0 0.52 0.07 0.52 0.17 0 0.09 -1.15 1.15 -2.54 2.35 -1.41 1.20 -2.41 1.98 -2.22 1.74z"/>
 </g>
 <g fill="#29c3f0">
  <path d="M18.17 15.80 c-0.54 -0.81 -1.63 -1.35 -2.80 -1.35 -1.22 0 -2.06 0.37 -2.70 1.19 l-0.54 0.67 -2.76 0 -2.74 0 0.11 -0.50 c0.50 -2.09 2.56 -4.59 4.57 -5.59 2.39 -1.17 5.54 -1.20 7.87 -0.09 1.57 0.74 3.28 2.44 4.04 4.04 1.13 2.31 1.30 2.13 -1.89 2.19 l-2.78 0.06 -0.39 -0.59z"/>
  <path d="M28.85 16.33 l-2.93 -0.06 0 -2.19 c0 -1.91 0.06 -2.28 0.43 -2.98 0.46 -0.87 1.37 -1.48 2.22 -1.48 0.67 0 1.74 0.50 1.98 0.91 0.50 0.85 0.50 0.85 1.22 0.20 1.20 -1.06 2.17 -1.37 4.06 -1.37 2.39 0.02 3.48 0.48 5.20 2.19 0.96 0.96 1.50 1.70 2 2.72 1.02 2.13 1.13 2.02 -2.06 2.02 l-2.74 0 -0.54 -0.67 c-1.31 -1.67 -4.20 -1.59 -5.48 0.15 l-0.46 0.61 -2.91 -0.06z"/>
  <path d="M48.83 16.30 l-2.74 -0.09 0.74 -1.50 c1.59 -3.19 4.26 -5.07 7.59 -5.37 3.57 -0.33 6.83 1.57 8.54 4.98 0.41 0.81 0.74 1.57 0.74 1.72 0 0.19 -0.59 0.26 -2.59 0.30 -2.48 0.06 -2.57 0.04 -2.67 -0.33 -0.17 -0.61 -1.67 -1.89 -2.50 -2.11 -0.43 -0.11 -1.06 -0.15 -1.41 -0.07 -0.94 0.17 -2.24 1.09 -2.63 1.89 l-0.33 0.69 -2.74 -0.09z"/>
  <path d="M76.69 15.70 c-0.78 -2.59 -4.83 -2.54 -5.48 0.09 l-0.13 0.50 -2.76 0 -2.76 0 0 -2.17 c0.02 -3.06 0.52 -4.09 2.19 -4.43 1.20 -0.24 2.37 0.28 2.96 1.33 0.19 0.33 0.24 0.31 0.91 -0.33 0.39 -0.37 1.02 -0.81 1.41 -0.98 1.04 -0.43 2.89 -0.56 4.24 -0.28 3.04 0.59 4.72 2.48 4.93 5.50 l0.09 1.33 -2.70 0.06 -2.69 0.06 -0.20 -0.69z"/>
  <path d="M113.02 15.87 c-0.54 -0.83 -1.70 -1.43 -2.81 -1.43 -1.24 0 -2.07 0.35 -2.72 1.19 l-0.54 0.67 -2.72 0 c-3.24 0 -3.15 0.09 -2 -2.19 1.67 -3.31 4.61 -5.11 7.83 -4.78 1.31 0.13 2.43 0.59 3.33 1.41 0.39 0.33 0.72 0.57 0.74 0.54 0.04 -0.04 0.20 -0.31 0.39 -0.59 0.35 -0.59 1.30 -1.06 2.09 -1.06 0.85 0 1.76 0.61 2.22 1.48 0.37 0.70 0.43 1.07 0.43 2.98 l0 2.19 -2.94 0.06 -2.94 0.06 -0.35 -0.52z"/>
  <path d="M183.65 16.33 c-0.52 -0.06 -0.52 -0.07 0.69 -1.35 2.04 -2.15 2.44 -3.43 1.39 -4.31 -1.22 -1.04 -3.87 -1.41 -10.17 -1.41 -8.91 0 -13.94 -0.70 -17.69 -2.48 -2.31 -1.09 -3.74 -2.37 -5.19 -4.65 l-0.72 -1.11 0.91 0.80 c3.07 2.70 6.98 3.96 13.80 4.46 1.48 0.11 6.11 0.24 10.28 0.30 4.19 0.07 8.39 0.20 9.35 0.30 3.31 0.33 4.81 1.02 4.81 2.19 0 0.81 -1.41 2.56 -3.70 4.61 -2.74 2.44 -3.15 2.74 -3.76 2.67z"/>
  <path d="M84.46 15.70 c0.61 -2.13 2.72 -4.69 4.63 -5.57 2.09 -0.98 4.91 -1.09 7.46 -0.31 2.74 0.85 3.69 3.11 2 4.87 -0.59 0.63 -1.52 0.67 -3.22 0.13 -2.15 -0.67 -3.94 -0.35 -5 0.91 l-0.50 0.57 -2.78 0 -2.78 0 0.19 -0.59z"/>
  <path d="M121.30 14.07 c0 -1.48 0.09 -2.44 0.26 -2.85 0.74 -1.80 3.19 -2.09 4.54 -0.56 l0.59 0.67 0.72 -0.67 c0.93 -0.83 1.65 -1.20 2.67 -1.33 1.11 -0.17 2.19 0.44 2.70 1.50 0.44 0.91 0.46 1.37 0.11 2.20 -0.31 0.76 -1.06 1.22 -3.04 1.87 -0.83 0.28 -1.78 0.70 -2.06 0.94 -0.52 0.43 -0.63 0.44 -3.52 0.44 l-2.98 0 0 -2.22z"/>
  <path d="M137.78 15.46 l0 -0.83 -0.83 0 c-1.87 0 -2.80 -0.94 -2.65 -2.63 0.07 -0.59 0.24 -1.06 0.50 -1.33 0.41 -0.44 1.61 -0.85 2.48 -0.85 0.46 0 0.46 -0.02 0.54 -2.17 0.09 -3.19 0.72 -4.20 2.57 -4.20 1.83 0 2.44 1.02 2.54 4.17 l0.07 2.15 1.37 0.11 c1.74 0.13 2.48 0.54 2.81 1.52 0.33 1 0.13 1.96 -0.54 2.61 -0.48 0.46 -0.72 0.54 -2.07 0.63 l-1.52 0.09 -0.06 0.80 -0.06 0.78 -2.59 0 -2.57 0 0 -0.83z"/>
 </g>
</svg>