<?xml version="1.0" encoding="utf-8"?>
<!DOCTYPE svg PUBLIC "-//W3C//DTD SVG 20010904//EN" "http://www.w3.org/TR/2001/REC-SVG-20010904/DTD/svg10.dtd">
<svg version="1.0" xmlns="http://www.w3.org/2000/svg" width="330px" height="205px" viewBox="0 0 330 205" preserveAspectRatio="xMidYMid meet">
 <g fill="#ffffff">
  <path d="M0 102.5 l0 -102.5 165 0 165 0 0 102.5 0 102.5 -165 0 -165 0 0 -102.5z m50 31.4 l0 -5.9 3.8 0 c2 0 4.3 0.4 5.1 0.9 1 0.6 2.5 0.4 4.3 -0.5 1.5 -0.8 2.8 -1.6 2.8 -1.7 0 -0.1 -2.8 -0.1 -6.3 0.1 -7.7 0.4 -8.9 -0.6 -9.5 -8.4 -0.5 -5.5 1.1 -11.3 3.2 -11.5 0.6 -0.1 -0.2 -0.4 -1.9 -0.8 -1.7 -0.4 -3.3 -0.2 -3.7 0.4 -0.9 1.2 -1 29 -0.2 32.2 1.1 4 2.4 1.4 2.4 -4.8z m-20 -5.4 c2.4 -1.4 2.3 -1.4 -2.7 -1.5 -5.7 0 -6.6 0.5 -3 2 2.9 1.2 2.8 1.2 5.7 -0.5z m70 -0.6 c0.9 -0.5 -1.1 -0.8 -5.5 -0.8 -6.6 0 -6.9 0.1 -4.5 1.4 2.5 1.4 6.9 1.2 10 -0.6z m60 0 c1 -0.5 -0.6 -0.9 -4.2 -0.9 -6.2 0 -7.2 0.5 -3.5 2 2.2 0.9 4.9 0.5 7.7 -1.1z m29 0.1 l5.5 -0.5 0.3 -9 c0.4 -12 0 -13.3 -3.7 -12.7 -2.9 0.4 -2.9 0.4 -1 2.3 1.5 1.5 1.9 3.3 1.9 8.2 0 9 -1.4 10.7 -9.3 10.7 -5.8 0.1 -6 0.2 -3.7 1.4 1.4 0.8 2.9 1.1 3.5 0.8 0.5 -0.4 3.5 -0.9 6.5 -1.2z m-72.8 -12.2 c0.2 -6.8 -0.1 -9.9 -0.9 -10.2 -0.6 -0.3 -1.4 -0.2 -1.7 0.1 -0.8 0.9 -0.8 20.8 0.1 21.7 1.4 1.3 2.1 -2.1 2.5 -11.6z m18.7 1.9 c-0.4 -7.4 -0.7 -8.9 -2.8 -11.1 -1.7 -1.8 -3.4 -2.6 -5.5 -2.5 -3 0.2 -3 0.2 -0.4 0.6 4.4 0.7 5.8 3.7 5.8 12.4 0 8.5 0.7 11.6 2.2 10.1 0.6 -0.6 0.9 -4.8 0.7 -9.5z m71.2 8.6 c0.1 -1 0 -4.2 -0.1 -7.1 -0.2 -6.6 1.4 -10.8 4.9 -12.1 2.3 -0.8 2.1 -1 -2.1 -1 l-4.8 -0.1 0 11 c0 6.7 0.4 11 1 11 0.6 0 1.1 -0.8 1.1 -1.7z m26.9 -8.8 l0 -10.5 3 -0.6 c3.4 -0.7 3 -2.4 -0.6 -2.4 -2.1 0 -2.4 -0.4 -2.4 -4 0 -2.2 -0.4 -4 -1 -4 -0.5 0 -1 1.6 -1 3.5 0 2.9 -0.5 3.7 -2.7 4.6 l-2.7 1 2.4 1.2 c2.4 1.2 2.5 1.7 2.8 11.5 0.4 13.6 2.2 13.3 2.2 -0.3z m-146.8 8.2 c-0.6 -0.7 -1.2 -4.9 -1.4 -9.2 l-0.3 -8 -1.8 3.4 c-2.2 3.9 -1.7 7.8 1.4 12.2 1.1 1.6 2.3 2.9 2.6 2.9 0.3 0 0.1 -0.6 -0.5 -1.3z m88.1 -2.8 c-2 -3.9 -1.3 -12.1 1.2 -14.9 1.2 -1.3 3.1 -2 5.7 -2 2.4 0 3.7 -0.4 3.3 -1 -1 -1.7 -5.1 -1.1 -7.9 1.1 -5.6 4.4 -7 11 -3.6 16.7 2.5 4.1 3.3 4.2 1.3 0.1z m-104.8 -0.9 c2.1 -4.1 1.9 -8.2 -0.8 -12.1 -3.2 -4.7 -6.8 -6.6 -9.8 -5.2 -2.2 1.1 -2.1 1.2 1.8 1.2 5.6 0.1 8.3 3.4 8.3 10.3 0 2.7 -0.5 5.8 -1 6.9 -0.6 1 -0.8 1.9 -0.6 1.9 0.3 0 1.2 -1.3 2.1 -3z m-31.5 -2.4 c0.9 -2.7 0.8 -4.2 -0.4 -7 -0.8 -2 -1.6 -3.6 -1.8 -3.6 -0.2 0 -0.3 3.3 -0.3 7.4 0 7.9 0.7 8.7 2.5 3.2z m108.5 -3 c0 -7.9 -0.7 -8.7 -2.5 -3.2 -0.9 2.7 -0.8 4.2 0.4 7 0.8 2 1.6 3.6 1.8 3.6 0.2 0 0.3 -3.3 0.3 -7.4z m-128.5 -0.3 c-0.1 -6.4 -0.2 -6.7 -1.5 -4.3 -0.8 1.4 -1.4 3.3 -1.5 4.2 0 1.7 2 6.8 2.7 6.8 0.1 0 0.3 -3 0.3 -6.7z m85.7 -0.9 c0.3 -0.8 0.1 -2.5 -0.4 -3.7 -0.9 -2 -1.1 -1.9 -1.5 1.6 -0.4 3.7 0.7 5.1 1.9 2.1z m54.9 -10.9 c-2.1 -0.9 -3.8 -1 -5.8 -0.3 -4.7 1.7 -3.9 2.3 2.5 1.9 6 -0.4 6.1 -0.4 3.3 -1.6z m-127.6 0.5 c-0.8 -0.5 -2.6 -1 -4 -1 -1.4 0 -3.2 0.5 -4 1 -1.1 0.7 0.1 1 4 1 3.9 0 5.1 -0.3 4 -1z m63.8 -0.7 c-1 -0.2 -2.6 -0.2 -3.5 0 -1 0.3 -0.2 0.5 1.7 0.5 1.9 0 2.7 -0.2 1.8 -0.5z"/>
 </g>
 <g fill="#00c1f2">
  <path d="M46 144 c-1.2 -0.8 -1.6 -4.4 -1.8 -19.9 -0.2 -12.4 0.1 -19.7 0.8 -21.1 1.2 -2.2 4.9 -2.7 6.7 -0.9 0.8 0.8 1.9 0.6 4.1 -0.5 4.2 -2.2 7.3 -2 11.2 0.7 5 3.3 7.4 8.1 7.4 14.3 -0.1 6.2 -2.6 10.9 -7.5 14.2 -3.4 2.3 -7.9 2.6 -12 0.8 -1.4 -0.6 -1.6 0.2 -1.7 4.9 0 7.5 -2.7 10.3 -7.2 7.5z m17.4 -21.6 c5.2 -5.1 1 -14.7 -5.6 -13.1 -4.5 1.2 -6.1 9.3 -2.6 13.4 1.5 1.8 6.3 1.6 8.2 -0.3z"/>
  <path d="M265.7 135.2 c-4.6 -5.1 1.9 -11.5 6.7 -6.6 2.1 2.1 2 4 -0.4 6.4 -2.5 2.5 -4.2 2.5 -6.3 0.2z"/>
  <path d="M288.8 135.9 c-2.1 -1.2 -2.4 -5.9 -0.6 -7.7 1.9 -1.9 5.5 -1.4 7.2 1 2 2.9 2 3.4 -0.4 5.8 -2.2 2.2 -3.7 2.4 -6.2 0.9z"/>
  <path d="M20 131.1 c-11.2 -5.9 -10.5 -24.6 1.1 -29.5 5.9 -2.4 10.7 -1.6 15.4 2.5 4.1 3.6 5.9 8.6 5.2 14.5 -1.2 11.3 -12.2 17.6 -21.7 12.5z m11.4 -9.3 c2 -2.9 2 -7.7 0 -10.6 -1.8 -2.6 -6 -2.9 -8.6 -0.5 -2.3 2.1 -2.4 8.9 -0.1 11.5 2.3 2.5 6.8 2.3 8.7 -0.4z"/>
  <path d="M85.6 130.8 c-13.5 -8 -8.1 -30.3 7.4 -30.3 7.3 0 13.4 5.3 14.7 12.8 0.9 5.8 -0.5 6.7 -10.8 6.7 -8.8 0 -10.3 0.6 -7.4 3 1 0.9 3.1 1 6.8 0.6 10.4 -1.4 10.2 -1.4 10.5 2.1 0.3 2.7 -0.2 3.4 -2.9 4.9 -1.8 0.9 -5.7 1.8 -8.8 2.1 -4.6 0.3 -6.3 0 -9.5 -1.9z m12.9 -17.9 c1 -1.5 -2.4 -4.9 -4.8 -4.9 -2.4 0 -5.7 2.7 -5.7 4.7 0 1.6 9.5 1.9 10.5 0.2z"/>
  <path d="M111.6 131.4 c-1.3 -1.2 -1.6 -4.1 -1.6 -14.8 0 -8.9 0.4 -13.6 1.2 -14.4 1.5 -1.5 5 -1.6 6.4 -0.2 0.7 0.7 2.1 0.5 4.3 -0.6 4.3 -2.1 9.7 -1.3 13 2.1 2.4 2.4 2.6 3.3 2.9 14.1 0.3 9.9 0.1 11.8 -1.4 13.5 -4.3 4.8 -7.4 0.4 -7.4 -10.6 0 -8.7 -1.5 -12.5 -5 -12.5 -3.9 0 -5 2.6 -5 11.8 0 11.5 -2.9 16.1 -7.4 11.6z"/>
  <path d="M149.5 132 c-1.1 -0.4 -3.2 -2.1 -4.7 -3.6 -11.6 -12.4 -0.5 -32.2 15.3 -27.5 4.7 1.4 7 5.1 4.9 7.6 -1.1 1.3 -2.4 1.5 -6.6 0.9 -4.5 -0.5 -5.5 -0.3 -7.3 1.5 -2.5 2.5 -2.8 7.7 -0.5 11 1.5 2.1 2.1 2.3 7.5 1.7 5.2 -0.6 5.9 -0.5 6.9 1.4 0.7 1.4 0.8 2.6 0.1 3.9 -1.9 3.4 -10.7 5.2 -15.6 3.1z"/>
  <path d="M175.2 131 c-4.9 -3 -7.2 -7.5 -7.2 -14.3 0 -3.2 0.7 -7.1 1.5 -8.7 3.3 -6.4 10.9 -9.4 16.6 -6.6 2.2 1.1 3.6 1.3 4.3 0.6 1.7 -1.7 5.5 -1.1 6.6 0.9 0.5 1.1 1 7.6 1 14.4 0 11.1 -0.2 12.6 -2 14.2 -1.8 1.6 -2.3 1.7 -4.5 0.5 -1.9 -1 -3 -1.1 -5 -0.2 -3.8 1.7 -7.6 1.5 -11.3 -0.8z m12.2 -9.2 c2.2 -3.1 2 -8.4 -0.4 -10.8 -5.7 -5.7 -13.1 1.7 -9.4 9.5 1.4 3 2.1 3.5 5 3.5 2.3 0 3.8 -0.7 4.8 -2.2z"/>
  <path d="M202.1 131.1 c-1.6 -1.6 -1.8 -3.1 -1.3 -14.7 0.2 -7.1 0.9 -13.5 1.4 -14.1 1.3 -1.7 5.5 -1.7 6 -0.1 0.4 1 1.4 0.8 4 -0.6 4.5 -2.4 8.1 -0.9 7.6 3.2 -0.2 2.1 -1.3 3.2 -4.6 4.7 -5 2.3 -5.7 3.8 -5.7 13.3 0 6.1 -0.3 7.6 -1.9 8.8 -2.6 1.8 -3.2 1.8 -5.5 -0.5z"/>
  <path d="M229.2 131.7 c-0.6 -0.7 -1.3 -5.8 -1.4 -11.2 -0.3 -9.8 -0.3 -10 -3.1 -11.3 -3.7 -1.8 -3.4 -6.1 0.6 -8 2 -1 2.7 -2 2.7 -4.2 0 -4.5 1 -6 4 -6 3.1 0 4 1.5 4 6.6 0 2.9 0.3 3.4 2.4 3.4 2.7 0 5.6 2.3 5.6 4.4 0 1.8 -1.9 3.2 -5.2 4 l-2.8 0.6 0 10.5 c0 9.3 -0.2 10.5 -1.9 11.5 -2.6 1.3 -3.6 1.3 -4.9 -0.3z"/>
  <path d="M305.1 115.3 c2.6 -2.7 5.1 -5.8 5.7 -6.9 2.5 -4.7 -2.7 -6.4 -20.3 -6.4 -13.8 -0.1 -26.3 -1.8 -31.1 -4.3 -2.7 -1.4 -9.2 -7.5 -6.9 -6.5 0.6 0.2 3.3 1.5 6 2.8 4.8 2.3 6.3 2.4 31 2.9 22.7 0.5 26.4 0.8 28.8 2.4 3.6 2.3 2.9 3.6 -7.4 12.9 -9.4 8.6 -12.3 10.2 -5.8 3.1z"/>
 </g>
</svg>