<?xml version="1.0" ?><!DOCTYPE svg  PUBLIC '-//W3C//DTD SVG 1.1//EN'  'http://www.w3.org/Graphics/SVG/1.1/DTD/svg11.dtd'><svg enable-background="new 0 0 512 512" id="Layer_1" version="1.1" viewBox="0 0 512 512" xml:space="preserve" xmlns="http://www.w3.org/2000/svg" xmlns:xlink="http://www.w3.org/1999/xlink"><g><path d="M329.4,363.7c-0.2-0.9-0.3-1.8-0.5-2.7c-0.5-2.9,0-6.1-2.9-8c-13.8-37.7-27.6-75.4-41.3-113.1   c-0.5,0.1-0.9,0.2-1.4,0.3c-2.8,7.9-5.5,15.8-8.3,23.7c-5.6,16.2-11.3,32.5-16.8,48.7c-4.6,13.4-8.9,26.9-13.5,40.3   c-4.2,12.5-8.7,24.9-13,37.4c-4.7,13.6-9.3,27.2-14.1,40.8c-5.1,14.5-10.2,29-15.4,43.5c-1,2.7-2.7,4.2-6,4.1c-5-0.2-10-0.3-15,0.1   c-3.7,0.3-5.6-1.4-6.7-4.5c-7.5-20.8-14.9-41.5-22.5-62.3c-9.3-25.7-18.8-51.3-28.2-77c-7.4-20.2-14.6-40.5-21.9-60.8   c-10.8-29.6-21.7-59.1-32.4-88.6c-9.5-26.2-19-52.3-28.3-78.5c-1.1-3.2-2.8-4.5-6.1-4.5c-6.3,0-12.6,0.3-19-0.4   c-7.8-0.9-13.4-6.8-13-14.2c0.3-7,6.5-12.7,14-12.8c29-0.4,58-0.5,86.9-1.1c14-0.3,27.9-1.5,41.9-2.5c7.6-0.5,12.6,2.6,13.2,8.9   c0.6,6.5-3.3,10.9-10.7,11.7c-7.8,0.8-15.6,1.4-23.4,2c-3.6,0.2-4.9,1.2-3.6,5.2c7.3,21.5,14.4,43.1,21.6,64.6   c15.3,45.8,30.6,91.5,45.9,137.2c6.9,20.6,13.9,41.1,20.8,61.7c0.9,2.6,2,5.2,3.1,7.7c0.4,1,0.5,2.4,2.1,2.4c1.6-0.1,1.6-1.5,2-2.5   c3.4-9.8,6.7-19.6,10-29.4c4.6-13.7,9.1-27.3,13.7-41c4.5-13.4,8.9-26.7,13.4-40.1c3.5-10.3,7-20.6,10.5-30.9   c2.3-6.9,4.6-13.8,6.8-20.7c1.8-5.5-2-9.9-3.6-14.6c-4.3-13-9.2-25.8-13.9-38.6c-5.6-15.2-11.1-30.4-16.7-45.6   c-1.3-3.6-2.9-7.1-3.8-10.7c-0.7-3-2-4-5-4.3c-8-0.6-15.9-1.4-23.8-2.3c-6.7-0.8-10.1-4.8-9.6-10.9c0.4-6,4.6-9.6,11.2-9.4   c17.3,0.5,34.5,2.2,51.9,2.8c22.4,0.7,44.6-0.3,66.9-1.7c6.1-0.4,12.3-0.9,18.4-1.2c5.9-0.2,9.8,3.3,10.5,9   c0.7,5.3-2.7,10.4-8.3,11.2c-8.7,1.2-17.5,2-26.3,2.6c-3.5,0.3-4.5,0.6-3.1,4.6c5.8,16.7,11.1,33.6,16.6,50.5   c2.1,6.5,4.3,12.9,6.5,19.4c0,1.3-0.3,2.8,1.5,3.4c0.1,0.6,0.2,1.2,0.3,1.8c0,2.7-0.2,5.6,2.7,7.2c0.1,0.6,0.2,1.2,0.3,1.8   c0,2.7-0.2,5.6,2.7,7.2c0.5,1.9,1,3.8,1.6,5.6c0,1.3-0.3,2.8,1.4,3.4c0.1,0.6,0.2,1.2,0.3,1.8c0,2.8-0.2,5.6,2.7,7.2   c0.1,0.6,0.2,1.2,0.3,1.7c-0.1,2.8-0.2,5.6,2.7,7.3c0.1,0.6,0.2,1.2,0.3,1.7c-0.1,2.8-0.2,5.6,2.7,7.3c0,0.3,0.1,0.6,0.1,0.9   c0.4,3.2-0.2,6.7,3.1,8.9c5.7,16.8,11.4,33.6,17,50.4c5.3,16,10.5,32.1,15.9,48.1c3.8,11.5,7.8,22.9,11.7,34.3   c0.4,1.1,0.3,2.4,1.9,2.4c1.7,0,1.5-1.4,1.8-2.4c4.9-16,10.1-31.8,14.7-47.9c5.8-20,12.8-39.7,19.2-59.5c7.7-23.7,12.8-48,9.7-73.1   c-2.1-17-7.7-32.9-15.8-48c-7.6-14.2-17.2-27.1-23.9-41.8c-10.8-23.6-8.2-46.8,10-62.8c19.1-16.8,60-15,74.9,18.9   c5.4,12.2,8.6,24.8,8.8,38.1c0.3,21.3,0.6,42.6-3.3,63.7c-3.5,18.7-9.3,36.6-15.8,54.4c-6.6,18-12.8,36.2-19.1,54.3   c-8.7,25.1-17.3,50.1-25.9,75.2c-6.4,18.5-12.7,37-19.1,55.5c-5.6,16.1-11.2,32.2-16.7,48.3c-3.6,10.6-6.7,21.4-11.6,31.6   c-1,2.2-2.1,3.1-4.4,3c-5-0.1-10-0.2-15,0c-3.1,0.1-4.6-1.5-5.7-3.9c-8.4-18.5-15.1-37.7-22-56.8c-5.4-15.2-11.3-30.4-16.9-45.5   c-0.3-0.8-0.4-1.6-0.5-2.4C331.9,367.6,332.4,364.9,329.4,363.7z" fill="#218DBE"/><path d="M362,236c-3.4-2.1-2.8-5.7-3.1-8.9C362.1,229.3,361.8,232.8,362,236z" fill="#96C9E0"/><path d="M326,353.1c2.9,2,2.4,5.2,2.9,8C326.1,359.1,325.9,356.1,326,353.1z" fill="#96C9E0"/><path d="M343.7,181.2c-2.9-1.7-2.7-4.5-2.7-7.2C343.8,175.7,343.6,178.5,343.7,181.2z" fill="#96C9E0"/><path d="M346.7,190.2c-2.9-1.7-2.7-4.5-2.7-7.2C346.8,184.7,346.6,187.5,346.7,190.2z" fill="#96C9E0"/><path d="M352.7,208.2c-2.9-1.7-2.7-4.5-2.7-7.2C352.7,202.7,352.6,205.5,352.7,208.2z" fill="#96C9E0"/><path d="M355.7,217.2c-2.9-1.7-2.7-4.5-2.7-7.3C355.7,211.7,355.7,214.5,355.7,217.2z" fill="#96C9E0"/><path d="M358.7,226.2c-2.9-1.7-2.7-4.5-2.7-7.3C358.7,220.7,358.7,223.5,358.7,226.2z" fill="#96C9E0"/><path d="M329.4,363.7c3.1,1.2,2.6,3.8,2.6,6.3C329.2,368.7,329.8,366,329.4,363.7z" fill="#96C9E0"/><path d="M340.7,172.2c-1.8-0.6-1.4-2-1.5-3.4C340.6,169.6,341.2,170.7,340.7,172.2z" fill="#96C9E0"/><path d="M349.7,199.2c-1.8-0.6-1.4-2-1.4-3.4C349.6,196.6,350.3,197.7,349.7,199.2z" fill="#96C9E0"/></g></svg>