<?xml version="1.0" standalone="no"?>
<!DOCTYPE svg PUBLIC "-//W3C//DTD SVG 20010904//EN"
 "http://www.w3.org/TR/2001/REC-SVG-20010904/DTD/svg10.dtd">
<svg version="1.0" xmlns="http://www.w3.org/2000/svg"
 width="57.000000pt" height="38.000000pt" viewBox="0 0 57.000000 38.000000"
 preserveAspectRatio="xMidYMid meet">

<g transform="translate(0.000000,38.000000) scale(0.100000,-0.100000)"
fill="#000000" stroke="none">
<path d="M197 337 c-177 -107 -45 -376 148 -302 66 25 98 72 103 149 3 51 0
66 -20 96 -55 81 -152 105 -231 57z m163 -8 c102 -58 107 -209 8 -269 -95 -58
-210 -13 -239 93 -36 133 109 244 231 176z"/>
<path d="M211 251 c-13 -23 -2 -36 13 -15 10 13 17 13 59 -3 47 -17 49 -17 63
1 7 10 11 23 8 28 -3 5 -11 2 -18 -7 -11 -16 -15 -16 -50 -1 -50 21 -63 20
-75 -3z"/>
<path d="M270 156 c0 -37 4 -66 10 -66 6 0 10 26 10 59 0 33 -4 63 -10 66 -6
4 -10 -18 -10 -59z"/>
</g>
</svg>
