<?xml version="1.0" encoding="UTF-8"?>
<svg xmlns="http://www.w3.org/2000/svg" xmlns:xlink="http://www.w3.org/1999/xlink" width="50pt" height="50pt" viewBox="0 0 50 50" version="1.1">
<g id="surface1">
<path style=" stroke:none;fill-rule:nonzero;fill:rgb(12.941176%,55.294118%,74.509804%);fill-opacity:1;" d="M 32.167969 35.515625 C 32.148438 35.429688 32.140625 35.34375 32.117188 35.253906 C 32.070312 34.96875 32.117188 34.65625 31.835938 34.472656 C 30.488281 30.789062 29.140625 27.109375 27.804688 23.429688 C 27.753906 23.4375 27.714844 23.445312 27.664062 23.457031 C 27.390625 24.230469 27.128906 25 26.855469 25.773438 C 26.308594 27.355469 25.75 28.945312 25.214844 30.527344 C 24.765625 31.835938 24.34375 33.15625 23.898438 34.460938 C 23.484375 35.683594 23.046875 36.894531 22.625 38.117188 C 22.167969 39.445312 21.71875 40.773438 21.25 42.101562 C 20.75 43.515625 20.253906 44.929688 19.746094 46.347656 C 19.648438 46.609375 19.484375 46.757812 19.160156 46.75 C 18.671875 46.730469 18.183594 46.71875 17.695312 46.757812 C 17.335938 46.789062 17.148438 46.621094 17.039062 46.320312 C 16.308594 44.289062 15.585938 42.265625 14.84375 40.234375 C 13.933594 37.726562 13.007812 35.226562 12.089844 32.714844 C 11.367188 30.742188 10.664062 28.761719 9.953125 26.777344 C 8.898438 23.886719 7.832031 21.007812 6.789062 18.125 C 5.859375 15.566406 4.929688 13.019531 4.023438 10.460938 C 3.914062 10.148438 3.75 10.019531 3.429688 10.019531 C 2.8125 10.019531 2.195312 10.050781 1.574219 9.980469 C 0.8125 9.894531 0.265625 9.316406 0.304688 8.59375 C 0.332031 7.910156 0.9375 7.355469 1.671875 7.34375 C 4.5 7.304688 7.332031 7.296875 10.15625 7.238281 C 11.523438 7.207031 12.882812 7.089844 14.25 6.992188 C 14.992188 6.945312 15.476562 7.246094 15.539062 7.863281 C 15.59375 8.496094 15.214844 8.925781 14.492188 9.003906 C 13.730469 9.082031 12.96875 9.140625 12.207031 9.199219 C 11.855469 9.21875 11.726562 9.316406 11.855469 9.707031 C 12.570312 11.808594 13.261719 13.917969 13.964844 16.015625 C 15.460938 20.488281 16.953125 24.953125 18.445312 29.414062 C 19.121094 31.425781 19.804688 33.429688 20.476562 35.4375 C 20.566406 35.695312 20.671875 35.945312 20.78125 36.191406 C 20.820312 36.289062 20.828125 36.425781 20.984375 36.425781 C 21.140625 36.414062 21.140625 36.28125 21.179688 36.179688 C 21.515625 35.226562 21.835938 34.265625 22.15625 33.3125 C 22.609375 31.972656 23.046875 30.644531 23.496094 29.308594 C 23.9375 28 24.367188 26.699219 24.804688 25.390625 C 25.148438 24.382812 25.488281 23.378906 25.828125 22.375 C 26.054688 21.699219 26.28125 21.023438 26.492188 20.351562 C 26.671875 19.8125 26.296875 19.382812 26.140625 18.925781 C 25.722656 17.65625 25.242188 16.40625 24.785156 15.15625 C 24.238281 13.671875 23.703125 12.1875 23.15625 10.703125 C 23.027344 10.351562 22.871094 10.011719 22.78125 9.660156 C 22.714844 9.367188 22.585938 9.269531 22.296875 9.238281 C 21.515625 9.179688 20.742188 9.101562 19.96875 9.015625 C 19.316406 8.9375 18.984375 8.546875 19.03125 7.949219 C 19.070312 7.363281 19.480469 7.011719 20.125 7.03125 C 21.816406 7.082031 23.496094 7.246094 25.195312 7.304688 C 27.382812 7.375 29.550781 7.277344 31.726562 7.140625 C 32.324219 7.101562 32.929688 7.050781 33.523438 7.023438 C 34.101562 7 34.484375 7.34375 34.550781 7.902344 C 34.617188 8.417969 34.289062 8.917969 33.738281 8.992188 C 32.890625 9.113281 32.03125 9.1875 31.171875 9.25 C 30.828125 9.277344 30.730469 9.304688 30.867188 9.695312 C 31.433594 11.328125 31.953125 12.976562 32.488281 14.628906 C 32.695312 15.265625 32.910156 15.890625 33.125 16.523438 C 33.125 16.652344 33.09375 16.796875 33.269531 16.855469 C 33.28125 16.914062 33.289062 16.972656 33.300781 17.03125 C 33.300781 17.296875 33.28125 17.578125 33.5625 17.734375 C 33.574219 17.792969 33.582031 17.851562 33.59375 17.910156 C 33.59375 18.175781 33.574219 18.457031 33.855469 18.613281 C 33.90625 18.800781 33.953125 18.984375 34.011719 19.160156 C 34.011719 19.289062 33.984375 19.433594 34.148438 19.492188 C 34.160156 19.550781 34.167969 19.609375 34.179688 19.667969 C 34.179688 19.941406 34.160156 20.214844 34.441406 20.371094 C 34.453125 20.429688 34.460938 20.488281 34.472656 20.539062 C 34.460938 20.8125 34.453125 21.085938 34.734375 21.25 C 34.746094 21.308594 34.753906 21.367188 34.765625 21.414062 C 34.753906 21.691406 34.746094 21.960938 35.027344 22.128906 C 35.027344 22.160156 35.039062 22.1875 35.039062 22.21875 C 35.078125 22.53125 35.019531 22.871094 35.34375 23.085938 C 35.898438 24.726562 36.453125 26.367188 37 28.007812 C 37.519531 29.570312 38.027344 31.144531 38.554688 32.703125 C 38.925781 33.828125 39.316406 34.941406 39.695312 36.054688 C 39.734375 36.164062 39.726562 36.289062 39.882812 36.289062 C 40.046875 36.289062 40.027344 36.152344 40.058594 36.054688 C 40.535156 34.492188 41.042969 32.949219 41.492188 31.378906 C 42.058594 29.425781 42.742188 27.5 43.367188 25.566406 C 44.121094 23.253906 44.617188 20.878906 44.316406 18.429688 C 44.109375 16.769531 43.5625 15.214844 42.773438 13.742188 C 42.03125 12.355469 41.09375 11.09375 40.4375 9.660156 C 39.382812 7.355469 39.636719 5.089844 41.414062 3.527344 C 43.28125 1.886719 47.273438 2.0625 48.730469 5.371094 C 49.257812 6.5625 49.570312 7.792969 49.589844 9.09375 C 49.617188 11.171875 49.648438 13.253906 49.265625 15.3125 C 48.925781 17.140625 48.359375 18.886719 47.722656 20.625 C 47.078125 22.382812 46.472656 24.160156 45.859375 25.929688 C 45.007812 28.378906 44.167969 30.820312 43.328125 33.273438 C 42.703125 35.078125 42.089844 36.886719 41.464844 38.691406 C 40.917969 40.265625 40.371094 41.835938 39.832031 43.410156 C 39.480469 44.445312 39.179688 45.5 38.699219 46.496094 C 38.601562 46.710938 38.496094 46.796875 38.269531 46.789062 C 37.78125 46.777344 37.292969 46.769531 36.804688 46.789062 C 36.503906 46.796875 36.355469 46.640625 36.25 46.40625 C 35.429688 44.601562 34.773438 42.726562 34.101562 40.859375 C 33.574219 39.375 32.996094 37.890625 32.449219 36.417969 C 32.421875 36.339844 32.410156 36.261719 32.402344 36.183594 C 32.414062 35.898438 32.460938 35.632812 32.167969 35.515625 Z M 32.167969 35.515625 "/>
<path style=" stroke:none;fill-rule:nonzero;fill:rgb(58.823529%,78.823529%,87.843137%);fill-opacity:1;" d="M 35.351562 23.046875 C 35.019531 22.84375 35.078125 22.492188 35.046875 22.179688 C 35.359375 22.390625 35.332031 22.734375 35.351562 23.046875 Z M 35.351562 23.046875 "/>
<path style=" stroke:none;fill-rule:nonzero;fill:rgb(58.823529%,78.823529%,87.843137%);fill-opacity:1;" d="M 31.835938 34.484375 C 32.117188 34.679688 32.070312 34.992188 32.117188 35.265625 C 31.847656 35.070312 31.824219 34.773438 31.835938 34.484375 Z M 31.835938 34.484375 "/>
<path style=" stroke:none;fill-rule:nonzero;fill:rgb(58.823529%,78.823529%,87.843137%);fill-opacity:1;" d="M 33.5625 17.695312 C 33.28125 17.53125 33.300781 17.257812 33.300781 16.992188 C 33.574219 17.15625 33.554688 17.429688 33.5625 17.695312 Z M 33.5625 17.695312 "/>
<path style=" stroke:none;fill-rule:nonzero;fill:rgb(58.823529%,78.823529%,87.843137%);fill-opacity:1;" d="M 33.859375 18.574219 C 33.574219 18.40625 33.59375 18.132812 33.59375 17.871094 C 33.867188 18.039062 33.847656 18.3125 33.859375 18.574219 Z M 33.859375 18.574219 "/>
<path style=" stroke:none;fill-rule:nonzero;fill:rgb(58.823529%,78.823529%,87.843137%);fill-opacity:1;" d="M 34.445312 20.332031 C 34.160156 20.164062 34.179688 19.890625 34.179688 19.628906 C 34.445312 19.796875 34.433594 20.070312 34.445312 20.332031 Z M 34.445312 20.332031 "/>
<path style=" stroke:none;fill-rule:nonzero;fill:rgb(58.823529%,78.823529%,87.843137%);fill-opacity:1;" d="M 34.734375 21.210938 C 34.453125 21.046875 34.472656 20.773438 34.472656 20.496094 C 34.734375 20.671875 34.734375 20.945312 34.734375 21.210938 Z M 34.734375 21.210938 "/>
<path style=" stroke:none;fill-rule:nonzero;fill:rgb(58.823529%,78.823529%,87.843137%);fill-opacity:1;" d="M 35.03125 22.089844 C 34.746094 21.921875 34.765625 21.648438 34.765625 21.375 C 35.03125 21.554688 35.03125 21.828125 35.03125 22.089844 Z M 35.03125 22.089844 "/>
<path style=" stroke:none;fill-rule:nonzero;fill:rgb(58.823529%,78.823529%,87.843137%);fill-opacity:1;" d="M 32.167969 35.515625 C 32.46875 35.632812 32.421875 35.890625 32.421875 36.132812 C 32.148438 36.007812 32.207031 35.742188 32.167969 35.515625 Z M 32.167969 35.515625 "/>
<path style=" stroke:none;fill-rule:nonzero;fill:rgb(58.823529%,78.823529%,87.843137%);fill-opacity:1;" d="M 33.273438 16.816406 C 33.09375 16.757812 33.132812 16.621094 33.125 16.484375 C 33.261719 16.5625 33.320312 16.671875 33.273438 16.816406 Z M 33.273438 16.816406 "/>
<path style=" stroke:none;fill-rule:nonzero;fill:rgb(58.823529%,78.823529%,87.843137%);fill-opacity:1;" d="M 34.148438 19.453125 C 33.976562 19.394531 34.015625 19.257812 34.015625 19.121094 C 34.140625 19.199219 34.210938 19.304688 34.148438 19.453125 Z M 34.148438 19.453125 "/>
</g>
</svg>
